<svg version="1.1" id="Layer_1" xmlns="http://www.w3.org/2000/svg" xmlns:xlink="http://www.w3.org/1999/xlink" x="0px" y="0px"
	 viewBox="0 0 479.3 139.9" style="enable-background:new 0 0 479.3 139.9;" xml:space="preserve">
<style type="text/css">
	.st0{fill:#5EABBF;}
	.st1{fill:#EAB45E;}
	.st2{fill:#E287B3;}
	.st3{fill:#81C7AB;}
	.st4{fill:none;stroke:#5B5B5B;stroke-width:3;stroke-linecap:round;stroke-miterlimit:10;}
	.st5{fill:#A8C73E;}
	.st6{fill:none;}
	.st7{font-family:'Verdana';}
	.st8{font-size:48px;}
	.st9{fill:#F876F2;}
	.st10{font-size:30px;}
</style>
<g>
	<ellipse class="st0" cx="34.3" cy="80.5" rx="14" ry="15.8"/>
	<path class="st0" d="M9,128.2l11.3-32c0,0,6.3,7,15.3,6.7s12.7-6.7,12.7-6.7l11.3,32H9z"/>
</g>
<g>
	<g>
		<g>
			<ellipse class="st1" cx="34.3" cy="113.7" rx="7.7" ry="8.7"/>
		</g>
		<path class="st1" d="M20.4,139.9l6.2-17.6c0,0,3.5,3.8,8.4,3.7s7-3.7,7-3.7l6.2,17.6H20.4z"/>
	</g>
</g>
<g>
	<ellipse class="st2" cx="89" cy="80.2" rx="14" ry="15.8"/>
	<path class="st2" d="M63.7,128L75,96c0,0,6.3,7,15.3,6.7S103,96,103,96l11.3,32H63.7z"/>
</g>
<g>
	<g>
		<g>
			<ellipse class="st3" cx="89" cy="113.7" rx="7.7" ry="8.7"/>
		</g>
		<path class="st3" d="M75.1,139.9l6.2-17.6c0,0,3.5,3.8,8.4,3.7c4.9-0.2,7-3.7,7-3.7l6.2,17.6H75.1z"/>
	</g>
</g>
<line class="st4" x1="61.7" y1="2.5" x2="61.7" y2="125.3"/>
<path class="st5" d="M5.2,60.3c0,0,6.4-28.2,20.8-40.8S60.7,7,60.7,7s20.1,1.1,36,13.3s19.9,40,19.9,40s-6.2-9-14.7-9
	c-8.5-0.1-12.9,9-12.9,9s-4.8-8.8-14-8.6s-13.3,8.6-13.3,8.6s-5.9-8.2-15.7-8.2S33,60.3,33,60.3s-7.5-7.8-15.7-7.8
	S5.2,60.3,5.2,60.3z"/>
<rect x="139.2" y="40.2" class="st6" width="344.2" height="49.8"/>
<text transform="matrix(1 0 0 1 139.1746 76.6324)"><tspan x="0" y="0" class="st5 st7 st8">Health</tspan><tspan x="156" y="0" class="st0 st7 st8">Matters</tspan></text>
<rect x="139.2" y="83.2" class="st6" width="353.5" height="36.9"/>
<text transform="matrix(1 0 0 1 139.1746 106.0235)" class="st9 st7 st10">Your Family.Protected.</text>
</svg>
